<?xml version="1.0" standalone="no"?>
<!DOCTYPE svg PUBLIC "-//W3C//DTD SVG 20010904//EN"
 "http://www.w3.org/TR/2001/REC-SVG-20010904/DTD/svg10.dtd">
<svg version="1.0" xmlns="http://www.w3.org/2000/svg"
 width="700.000000pt" height="700.000000pt" viewBox="0 0 700.000000 700.000000"
 preserveAspectRatio="xMidYMid meet">
<metadata>
Created by potrace 1.14, written by Peter Selinger 2001-2017
</metadata>
<g transform="translate(0.000000,700.000000) scale(0.100000,-0.100000)"
fill="#000000" stroke="none">
<path d="M2435 6463 c-16 -1 -194 -4 -395 -7 -201 -2 -381 -7 -400 -11 -121
-24 -216 -48 -295 -75 -49 -17 -99 -34 -110 -37 -59 -19 -304 -153 -369 -203
-107 -83 -242 -210 -310 -293 -17 -22 -39 -48 -49 -59 -9 -12 -17 -24 -17 -28
0 -3 -9 -16 -20 -27 -29 -32 -115 -187 -151 -272 -92 -218 -123 -369 -123
-601 0 -189 6 -247 39 -380 41 -167 82 -267 172 -423 99 -171 259 -352 423
-477 274 -208 590 -329 930 -355 104 -8 167 -15 225 -26 28 -5 65 -12 84 -15
58 -10 202 -64 281 -106 132 -71 249 -165 345 -279 98 -114 195 -314 220 -448
3 -14 7 -37 10 -51 11 -47 7 -288 -5 -347 -7 -32 -13 -62 -15 -68 -20 -97
-101 -264 -178 -367 -178 -238 -450 -399 -752 -444 -75 -11 -227 -13 -1102
-13 l-873 -1 0 -255 c0 -236 1 -255 18 -256 29 -2 965 -1 1493 2 516 2 531 3
729 50 411 97 782 357 1028 720 55 82 142 265 178 376 56 174 73 291 70 488
-2 94 -8 190 -14 215 -6 25 -13 56 -15 70 -36 194 -165 464 -305 640 -38 47
-202 214 -262 265 -113 97 -303 206 -475 272 -49 19 -96 37 -105 38 -8 2 -31
9 -50 15 -19 6 -46 13 -60 16 -14 2 -46 9 -72 15 -66 15 -91 18 -208 24 -112
6 -322 43 -405 70 -28 9 -83 32 -123 51 -41 19 -76 34 -78 34 -2 0 -43 27 -92
60 -222 149 -383 375 -449 630 -20 78 -25 120 -25 230 -1 148 11 225 49 340
86 260 295 495 551 624 80 40 227 92 288 102 21 3 58 9 82 14 60 11 328 13
1557 13 1392 0 1384 0 1520 -28 241 -50 442 -159 604 -331 195 -207 293 -446
292 -718 -1 -61 -3 -124 -6 -141 -3 -16 -7 -45 -10 -63 -3 -18 -19 -73 -36
-122 -49 -149 -118 -266 -230 -384 -161 -171 -352 -281 -580 -336 -114 -27
-199 -33 -504 -34 l-260 -1 -5 -40 c-8 -59 -6 -3162 2 -3170 8 -8 558 -9 566
0 3 3 7 448 8 988 4 1451 2 1346 20 1322 13 -17 126 -199 159 -257 5 -10 49
-82 96 -160 48 -79 152 -251 231 -383 80 -132 243 -402 363 -600 120 -198 227
-376 239 -396 11 -19 86 -144 166 -277 l145 -242 110 -1 c300 -2 617 0 621 3
5 6 -151 270 -563 953 -193 319 -376 623 -407 675 -31 52 -61 102 -66 110
-460 762 -593 985 -597 998 -3 13 12 22 69 39 193 58 311 114 488 231 86 57
147 108 245 206 245 246 392 520 452 840 23 126 23 388 -1 516 -116 628 -611
1136 -1264 1300 -148 37 -272 49 -530 50 -514 3 -2178 5 -2207 3z"/>
</g>
</svg>
