<svg id="svg" version="1.1" xmlns="http://www.w3.org/2000/svg" xmlns:xlink="http://www.w3.org/1999/xlink" width="400" height="400" viewBox="0, 0, 400,400"><g id="svgg"><path id="path0" d="M273.188 0.799 C 273.048 1.238,272.803 4.617,272.642 8.307 C 271.830 26.985,265.503 30.911,234.505 31.966 C 208.699 32.845,201.118 35.168,194.461 44.236 L 192.223 47.284 107.294 47.284 L 22.364 47.284 22.364 215.016 L 22.364 382.748 136.371 382.748 L 250.377 382.748 255.538 386.302 C 282.092 404.594,320.038 404.170,344.901 385.303 C 348.134 382.850,348.460 382.748,353.048 382.748 L 357.827 382.748 357.827 378.204 C 357.827 373.852,357.934 373.533,360.334 370.665 C 383.344 343.183,383.165 298.380,359.942 272.043 L 357.827 269.645 357.827 158.465 L 357.827 47.284 281.150 47.284 C 232.708 47.284,204.473 47.059,204.473 46.672 C 204.473 45.402,210.612 42.538,216.535 41.045 C 222.450 39.554,223.630 39.489,247.604 39.331 C 263.907 39.224,273.850 38.900,276.358 38.394 C 293.503 34.939,301.199 26.483,302.061 10.152 L 302.428 3.195 299.551 3.195 L 296.675 3.195 296.294 8.786 C 295.280 23.665,289.579 29.788,274.313 32.392 C 268.794 33.333,264.586 33.142,267.732 32.093 C 273.764 30.081,279.233 16.796,279.233 4.153 L 279.233 0.000 276.338 0.000 C 274.583 0.000,273.342 0.315,273.188 0.799 M187.720 91.534 L 187.900 99.042 173.183 99.042 L 158.466 99.042 158.466 121.764 L 158.466 144.486 156.070 144.288 L 153.674 144.089 153.496 135.304 L 153.319 126.518 150.875 126.518 C 143.536 126.518,139.194 135.356,143.199 142.145 L 144.541 144.419 104.379 144.254 L 64.217 144.089 64.217 126.518 C 64.217 104.648,65.772 99.267,74.284 91.672 C 83.158 83.755,82.473 83.836,139.617 83.939 L 187.540 84.026 187.720 91.534 M290.639 84.374 C 299.590 85.827,308.046 92.198,312.162 100.591 C 315.284 106.958,315.655 109.892,315.655 128.202 L 315.655 144.409 278.571 144.409 L 241.487 144.409 243.108 142.024 C 247.471 135.603,242.854 126.518,235.228 126.518 L 232.588 126.518 232.588 135.508 C 232.588 144.465,232.583 144.497,231.150 144.294 L 229.712 144.089 229.545 121.565 L 229.377 99.042 212.452 99.042 L 195.527 99.042 195.527 91.374 L 195.527 83.706 241.054 83.711 C 269.227 83.714,288.128 83.967,290.639 84.374 M158.315 186.422 L 158.483 208.946 170.296 208.946 L 182.109 208.946 182.116 216.134 C 182.129 230.264,186.134 235.986,195.208 234.836 C 202.986 233.851,205.303 230.050,205.636 217.732 L 205.873 208.946 217.633 208.946 L 229.393 208.946 229.393 186.262 L 229.393 163.578 272.524 163.578 L 315.655 163.578 315.655 204.226 L 315.655 244.873 313.578 244.472 C 256.452 233.434,207.369 289.041,224.662 345.208 C 225.174 346.871,94.266 346.944,87.581 345.285 C 77.007 342.660,69.336 335.602,65.673 325.127 L 64.261 321.086 64.060 243.163 C 63.949 200.306,64.003 164.865,64.179 164.405 C 64.440 163.726,73.242 163.601,111.323 163.734 L 158.147 163.898 158.315 186.422 M334.824 287.258 C 352.255 290.879,361.977 303.887,360.824 322.045 C 359.697 339.770,350.415 350.746,333.268 354.631 C 326.817 356.093,309.584 356.628,303.817 355.546 L 301.597 355.129 301.597 321.374 L 301.597 287.618 304.633 287.209 C 306.302 286.984,307.955 286.702,308.307 286.582 C 310.426 285.856,330.544 286.369,334.824 287.258 M280.836 290.213 C 293.306 296.701,293.244 312.597,280.726 318.537 L 278.300 319.688 280.711 320.523 C 297.313 326.271,296.084 347.772,278.755 354.740 C 273.425 356.883,260.421 356.904,254.313 354.780 C 248.050 352.601,248.229 352.823,249.170 348.389 C 250.379 342.692,250.170 342.801,256.331 344.680 C 269.644 348.741,279.241 345.039,279.229 335.848 C 279.220 328.933,274.697 325.635,264.109 324.821 L 258.786 324.412 258.786 320.125 L 258.786 315.838 263.755 315.497 C 275.291 314.706,281.025 307.543,275.206 301.193 C 271.640 297.302,265.480 296.927,257.643 300.123 C 253.013 302.012,253.140 302.072,251.638 297.263 C 250.139 292.460,250.041 292.774,253.514 291.234 C 261.735 287.588,274.850 287.098,280.836 290.213 M315.815 296.506 L 314.377 297.083 314.377 321.303 L 314.377 345.522 317.506 345.937 C 323.983 346.797,332.782 344.978,337.605 341.783 C 351.407 332.641,350.571 305.497,336.278 298.693 C 331.151 296.252,319.534 295.011,315.815 296.506 " stroke="none" fill="#000000" fill-rule="evenodd"></path></g></svg>