<svg id="svg" version="1.1" xmlns="http://www.w3.org/2000/svg" xmlns:xlink="http://www.w3.org/1999/xlink" width="400" height="400" viewBox="0, 0, 400,400"><g id="svgg"><path id="path0" d="M191.707 87.081 C 167.911 89.520,148.352 98.711,130.034 116.062 C 121.380 124.261,115.458 128.802,100.244 138.910 C 70.037 158.978,70.638 158.093,69.506 184.146 C 68.615 204.636,67.262 214.770,63.195 231.405 C 60.954 240.572,60.782 241.860,61.466 244.399 C 62.696 248.968,66.497 250.853,73.171 250.203 C 78.950 249.640,81.730 248.394,89.376 242.938 C 91.583 241.364,91.932 241.279,97.669 240.906 C 109.289 240.150,116.630 238.174,124.003 233.817 C 137.512 225.834,140.590 220.564,143.179 200.976 C 145.335 184.664,147.108 175.694,149.795 167.509 C 152.233 160.083,153.855 159.120,152.486 165.910 C 150.258 176.966,149.846 185.662,150.972 197.805 C 153.416 224.156,148.443 237.013,132.822 244.733 C 128.396 246.921,128.406 247.164,133.049 250.110 C 154.574 263.773,184.418 271.687,219.390 273.007 C 229.333 273.382,228.623 273.789,228.736 267.634 C 229.409 230.736,248.866 207.921,294.083 191.009 C 329.417 177.793,341.300 162.820,344.438 127.561 C 346.072 109.195,345.213 102.735,340.508 98.005 C 333.698 91.159,326.281 91.768,289.512 102.189 C 261.793 110.046,254.882 109.878,245.237 101.113 C 231.474 88.606,216.113 84.580,191.707 87.081 M225.620 112.620 C 229.858 114.545,233.673 120.469,233.648 125.087 C 233.592 135.479,220.553 135.967,215.336 125.772 C 210.789 116.887,217.139 108.767,225.620 112.620 M118.951 254.019 C 117.059 254.443,112.788 268.332,111.881 277.011 C 111.533 280.336,111.769 280.601,119.155 285.187 C 144.575 300.972,181.265 310.590,221.525 312.022 L 230.611 312.345 231.358 311.173 C 232.093 310.021,233.249 299.960,233.879 289.244 C 234.243 283.039,234.029 282.750,228.950 282.576 C 188.702 281.199,151.850 271.993,125.201 256.658 C 120.524 253.967,120.059 253.771,118.951 254.019 M227.561 319.451 C 217.921 322.465,218.117 348.848,227.795 350.973 C 228.792 351.192,229.863 351.008,231.090 350.405 C 241.116 345.481,237.784 316.254,227.561 319.451 " stroke="none" fill="#000000" fill-rule="evenodd"></path></g></svg>