<svg id="svg" version="1.1" xmlns="http://www.w3.org/2000/svg" xmlns:xlink="http://www.w3.org/1999/xlink" width="400" height="408.2608695652174" viewBox="0, 0, 400,408.2608695652174"><g id="svgg"><path id="path0" d="M187.609 20.703 C 163.754 31.245,87.226 65.681,58.261 78.906 C 49.533 82.891,39.089 87.653,35.053 89.489 C 30.105 91.740,27.486 93.174,27.010 93.893 C 26.230 95.073,25.682 129.720,26.309 138.196 C 26.749 144.149,26.336 143.944,39.239 144.604 L 44.783 144.887 44.825 206.465 C 44.899 311.944,45.299 353.366,46.265 355.341 L 47.069 356.986 199.078 356.847 C 301.960 356.752,351.509 356.563,352.391 356.259 C 354.362 355.582,354.306 358.284,354.667 247.319 C 354.850 190.964,355.163 144.692,355.362 144.493 C 355.561 144.293,359.278 144.014,363.622 143.872 C 371.854 143.602,372.755 143.451,373.316 142.249 C 373.502 141.849,373.729 130.843,373.819 117.790 L 373.983 94.059 372.970 93.408 C 370.004 91.503,265.295 46.840,209.348 23.615 C 193.268 16.940,195.459 17.233,187.609 20.703 M208.575 43.737 C 219.957 48.552,236.991 55.797,272.391 70.882 C 277.891 73.226,298.533 82.018,318.261 90.421 C 337.989 98.824,354.256 105.836,354.409 106.002 C 354.562 106.168,354.774 110.458,354.879 115.536 L 355.071 124.767 345.253 124.883 L 335.435 125.000 335.325 231.630 L 335.216 338.261 325.434 338.261 L 315.652 338.261 315.652 260.651 L 315.652 183.042 199.674 183.151 L 83.696 183.261 83.586 260.761 L 83.476 338.261 73.695 338.261 L 63.915 338.261 63.805 231.630 L 63.696 125.000 54.239 124.883 L 44.783 124.766 44.783 115.480 C 44.783 108.576,44.922 106.080,45.326 105.751 C 45.625 105.508,60.446 98.743,78.261 90.719 C 96.076 82.694,129.533 67.619,152.609 57.219 C 175.685 46.819,194.805 38.298,195.097 38.285 C 195.390 38.272,201.455 40.725,208.575 43.737 M83.478 149.130 L 83.478 163.478 107.609 163.478 L 131.739 163.478 131.739 149.130 L 131.739 134.783 107.609 134.783 L 83.478 134.783 83.478 149.130 M141.739 149.130 L 141.739 163.478 165.870 163.478 L 190.000 163.478 190.000 149.130 L 190.000 134.783 165.870 134.783 L 141.739 134.783 141.739 149.130 M200.000 149.130 L 200.000 163.478 224.130 163.478 L 248.261 163.478 248.261 149.130 L 248.261 134.783 224.130 134.783 L 200.000 134.783 200.000 149.130 M267.391 149.130 L 267.391 163.478 291.522 163.478 L 315.652 163.478 315.652 149.130 L 315.652 134.783 291.522 134.783 L 267.391 134.783 267.391 149.130 M306.452 197.582 C 306.360 200.079,306.189 202.217,306.072 202.333 C 305.956 202.450,258.074 202.609,199.669 202.686 L 93.478 202.826 93.478 197.935 L 93.478 193.043 200.049 193.043 L 306.620 193.043 306.452 197.582 M306.077 212.459 C 306.191 212.570,306.360 214.704,306.452 217.200 L 306.620 221.739 200.049 221.739 L 93.478 221.739 93.478 216.848 L 93.478 211.957 199.674 212.107 C 258.082 212.189,305.963 212.348,306.077 212.459 M303.152 232.022 L 306.087 232.300 306.087 236.514 L 306.087 240.728 287.103 241.016 C 276.661 241.175,228.824 241.304,180.798 241.304 L 93.478 241.304 93.478 236.522 L 93.478 231.739 196.848 231.742 C 253.701 231.744,301.538 231.870,303.152 232.022 M306.522 254.728 C 306.522 256.611,306.399 258.764,306.250 259.511 L 305.978 260.870 199.728 260.870 L 93.478 260.870 93.478 256.087 L 93.478 251.304 200.000 251.304 L 306.522 251.304 306.522 254.728 M306.077 270.734 C 306.191 270.837,306.360 272.965,306.452 275.461 L 306.620 280.000 200.049 280.000 L 93.478 280.000 93.478 275.053 L 93.478 270.107 199.674 270.326 C 258.082 270.447,305.963 270.631,306.077 270.734 M306.454 294.313 C 306.372 296.684,306.154 298.775,305.970 298.958 C 305.787 299.141,257.901 299.379,199.557 299.486 L 93.478 299.680 93.478 294.840 L 93.478 290.000 200.041 290.000 L 306.603 290.000 306.454 294.313 " stroke="none" fill="#000000" fill-rule="evenodd"></path></g></svg>