<svg id="svg" version="1.1" xmlns="http://www.w3.org/2000/svg" xmlns:xlink="http://www.w3.org/1999/xlink" width="400" height="400" viewBox="0, 0, 400,400"><g id="svgg"><path id="path0" d="M192.563 13.204 C 191.728 17.652,189.576 26.146,187.781 32.082 C 183.271 46.988,183.788 61.454,188.983 65.765 C 190.543 67.061,190.817 66.146,190.776 59.776 C 190.750 55.641,192.233 46.161,194.072 38.710 C 197.683 24.080,198.289 12.698,195.704 8.043 C 194.199 5.333,193.969 5.710,192.563 13.204 M208.635 33.226 C 200.541 44.989,200.614 56.055,208.846 65.484 C 212.033 69.134,213.333 69.194,212.205 65.639 C 211.027 61.929,211.324 43.528,212.697 35.161 C 214.015 27.129,213.122 26.704,208.635 33.226 M166.452 86.263 C 156.155 87.173,153.299 88.282,148.767 93.130 C 144.943 97.219,116.129 143.438,116.129 145.482 C 116.129 146.758,133.581 147.097,199.355 147.097 C 265.129 147.097,282.581 146.758,282.581 145.482 C 282.581 142.158,252.768 96.000,247.579 91.290 L 242.249 86.452 229.834 86.437 C 223.006 86.428,208.129 86.193,196.774 85.914 C 185.419 85.635,171.774 85.792,166.452 86.263 M213.588 108.406 C 228.905 115.821,219.860 129.032,199.465 129.032 C 186.582 129.032,178.065 124.119,178.065 116.687 C 178.065 107.385,200.618 102.128,213.588 108.406 M84.839 158.813 C 81.464 160.779,78.443 167.431,79.437 170.710 C 81.654 178.028,84.618 179.355,98.751 179.355 L 111.890 179.355 112.730 187.419 C 113.872 198.392,117.524 205.174,134.305 227.483 L 148.669 246.580 139.118 284.817 L 129.568 323.055 122.846 324.569 C 102.859 329.071,89.852 348.201,94.044 366.932 C 102.300 403.824,152.823 405.652,163.351 369.439 L 165.353 362.550 214.530 362.888 L 263.707 363.226 265.969 372.191 C 270.908 391.762,274.118 396.009,280.708 391.690 C 285.486 388.560,285.290 387.454,266.936 314.138 L 250.002 246.490 262.987 229.374 C 281.621 204.813,284.715 199.252,285.810 188.352 L 286.714 179.355 299.906 179.355 C 314.097 179.355,317.054 178.035,319.273 170.710 C 320.304 167.308,317.151 160.638,313.620 158.748 C 310.204 156.920,87.981 156.983,84.839 158.813 M249.253 195.684 C 252.181 198.334,252.253 201.025,249.477 204.092 C 245.477 208.512,238.710 205.639,238.710 199.521 C 238.710 193.774,244.724 191.585,249.253 195.684 M176.781 255.161 C 176.808 268.312,181.571 272.258,197.419 272.258 C 213.489 272.258,216.774 269.831,216.774 257.959 L 216.774 251.613 226.291 251.613 L 235.807 251.613 247.581 298.697 C 254.057 324.593,259.355 346.077,259.355 346.439 C 259.355 346.801,237.678 347.097,211.185 347.097 L 163.015 347.097 158.786 340.570 C 156.460 336.981,152.298 332.549,149.537 330.721 C 143.369 326.640,142.869 331.714,153.709 288.371 L 162.902 251.613 169.838 251.613 C 176.543 251.613,176.774 251.731,176.781 255.161 M136.833 347.460 C 145.764 354.498,145.263 367.960,135.891 372.752 C 125.600 378.015,114.839 371.497,114.839 360.000 C 114.839 348.558,128.409 340.821,136.833 347.460 " stroke="none" fill="#000000" fill-rule="evenodd"></path></g></svg>