<svg id="svg" version="1.1" xmlns="http://www.w3.org/2000/svg" xmlns:xlink="http://www.w3.org/1999/xlink" width="400" height="412.63157894736844" viewBox="0, 0, 400,412.63157894736844"><g id="svgg"><path id="path0" d="M177.474 1.027 C 146.500 5.373,126.594 11.578,103.003 24.241 C 54.390 50.335,20.631 91.018,2.926 144.842 C 0.188 153.167,0.147 153.793,2.316 154.179 C 4.396 154.548,19.578 154.541,24.352 154.169 L 27.862 153.895 30.492 146.737 C 35.610 132.807,41.828 119.978,48.470 109.643 C 51.132 105.502,51.647 105.429,62.821 107.607 C 67.059 108.433,77.231 110.227,85.425 111.594 C 93.620 112.961,100.404 114.158,100.501 114.255 C 100.598 114.352,100.087 117.248,99.365 120.690 C 97.239 130.830,96.064 137.003,94.727 145.053 C 94.034 149.221,93.371 153.058,93.252 153.579 L 93.037 154.526 101.992 154.524 C 106.917 154.523,113.034 154.402,115.584 154.255 L 120.222 153.988 122.019 144.047 C 123.762 134.408,127.359 117.553,127.758 117.154 C 127.866 117.046,133.223 117.267,139.661 117.645 C 163.133 119.023,168.196 119.201,190.737 119.445 C 217.422 119.734,235.161 119.219,267.417 117.217 L 271.887 116.940 272.986 121.638 C 273.891 125.506,277.956 145.857,279.092 152.211 L 279.393 153.895 283.381 154.210 C 285.574 154.384,291.650 154.478,296.883 154.421 L 306.398 154.316 304.971 145.895 C 304.187 141.263,302.493 132.296,301.209 125.967 C 299.924 119.639,298.958 114.375,299.063 114.271 C 299.167 114.166,305.010 113.134,312.047 111.976 C 324.456 109.934,331.850 108.610,340.277 106.921 C 348.411 105.290,348.866 105.555,354.398 115.158 C 360.313 125.427,364.199 133.786,368.885 146.316 L 371.719 153.895 375.649 154.226 C 380.984 154.676,398.165 154.429,398.682 153.895 C 399.643 152.902,394.757 138.277,388.764 124.211 C 362.502 62.566,306.621 17.350,239.972 3.815 C 222.604 0.288,192.360 -1.061,177.474 1.027 M208.411 28.053 C 227.503 32.837,248.108 55.469,260.380 85.134 C 262.336 89.862,262.331 90.349,260.316 90.671 C 249.973 92.325,187.563 93.324,164.000 92.213 C 150.039 91.555,141.027 90.937,138.630 90.473 L 136.419 90.045 141.243 80.496 C 162.082 39.254,184.199 21.985,208.411 28.053 M133.426 40.105 C 133.152 40.626,131.626 43.085,130.034 45.570 C 123.951 55.062,117.113 68.340,112.051 80.488 L 109.184 87.368 106.487 87.270 C 103.033 87.144,97.420 86.357,82.606 83.922 L 70.685 81.962 74.606 77.998 C 87.790 64.666,103.410 53.910,125.535 42.928 C 133.788 38.832,134.167 38.696,133.426 40.105 M273.263 42.533 C 287.718 49.200,299.740 56.646,312.632 66.914 C 317.833 71.057,329.180 81.790,328.559 81.979 C 324.545 83.207,291.105 87.912,290.541 87.328 C 290.338 87.119,289.006 84.105,287.579 80.632 C 282.559 68.407,277.179 57.976,269.827 46.213 C 267.549 42.567,265.684 39.494,265.684 39.384 C 265.684 39.081,266.639 39.477,273.263 42.533 M19.474 169.127 C 18.257 169.377,17.392 166.297,26.701 194.890 C 31.197 208.700,36.607 225.353,38.723 231.895 L 42.571 243.789 53.240 243.789 C 63.009 243.789,63.935 243.727,64.204 243.053 C 64.365 242.647,66.453 236.821,68.843 230.105 C 76.532 208.502,77.050 207.263,77.800 208.665 C 78.235 209.478,85.573 229.947,88.693 239.050 L 90.316 243.785 101.138 243.787 L 111.960 243.789 113.274 239.684 C 113.996 237.426,118.728 222.695,123.789 206.947 C 135.697 169.894,135.752 169.717,135.394 169.358 C 134.892 168.855,113.174 168.737,111.877 169.230 C 110.400 169.791,110.643 169.128,105.706 186.105 C 103.383 194.095,101.217 201.484,100.891 202.526 L 100.300 204.421 99.781 203.158 C 99.496 202.463,96.750 194.505,93.678 185.474 L 88.094 169.053 77.415 168.946 L 66.737 168.839 61.934 183.051 C 55.865 201.011,54.714 204.066,54.298 203.318 C 54.120 202.998,51.845 195.442,49.242 186.526 C 46.640 177.611,44.247 170.032,43.925 169.684 C 43.350 169.064,22.134 168.581,19.474 169.127 M141.053 169.162 C 141.053 169.467,153.383 207.726,161.699 233.221 L 165.187 243.916 172.134 243.642 C 175.955 243.492,180.814 243.368,182.931 243.368 L 186.781 243.368 187.479 241.368 C 193.242 224.844,196.410 215.943,197.498 213.219 C 198.228 211.391,199.010 209.421,199.237 208.842 L 199.650 207.789 200.408 209.263 C 201.152 210.709,206.115 224.256,210.551 236.947 L 212.795 243.368 217.029 243.370 C 219.358 243.371,224.230 243.494,227.855 243.645 L 234.447 243.918 235.692 239.959 C 236.377 237.782,241.795 221.020,247.732 202.711 C 253.669 184.402,258.526 169.291,258.526 169.132 C 258.526 168.973,252.875 168.842,245.968 168.842 L 233.411 168.842 228.460 185.789 C 225.738 195.111,223.343 202.910,223.138 203.122 C 222.587 203.693,221.625 201.187,215.978 184.477 L 210.879 169.387 206.427 169.115 C 203.978 168.965,199.114 168.844,195.619 168.846 L 189.263 168.849 185.134 181.372 C 180.138 196.522,177.699 203.368,177.297 203.368 C 176.938 203.368,174.678 196.357,169.970 180.632 L 166.502 169.053 153.778 168.941 C 146.779 168.880,141.053 168.979,141.053 169.162 M265.368 169.115 C 264.616 169.226,264.000 169.491,264.000 169.705 C 264.000 170.286,278.826 216.782,286.582 240.526 L 287.648 243.789 298.456 243.785 L 309.263 243.781 313.543 231.469 C 319.748 213.620,321.802 208.000,322.124 208.000 C 322.703 208.000,326.691 218.472,332.885 236.253 L 335.320 243.243 346.024 243.538 C 351.912 243.700,356.814 243.747,356.919 243.642 C 357.390 243.171,381.071 169.563,380.828 169.323 C 380.526 169.024,356.302 169.032,356.003 169.331 C 355.852 169.481,347.646 196.775,346.022 202.526 C 345.793 203.337,345.477 204.137,345.320 204.304 C 345.162 204.472,342.387 196.653,339.152 186.929 L 333.270 169.249 322.584 169.362 L 311.898 169.474 310.486 173.474 C 309.710 175.674,307.362 182.437,305.269 188.504 C 300.625 201.962,299.865 203.819,299.362 202.922 C 299.160 202.561,296.815 194.912,294.149 185.925 C 291.484 176.937,289.221 169.502,289.120 169.401 C 288.857 169.137,267.001 168.874,265.368 169.115 M375.579 230.737 L 375.579 242.947 387.579 242.947 L 399.579 242.947 399.579 230.737 L 399.579 218.526 387.579 218.526 L 375.579 218.526 375.579 230.737 M371.598 258.144 C 371.480 258.470,370.513 261.295,369.451 264.421 C 364.840 277.990,352.783 302.173,348.532 306.379 C 348.106 306.801,346.450 306.616,340.211 305.448 C 335.926 304.646,325.032 302.746,316.000 301.225 C 306.968 299.705,299.457 298.333,299.307 298.178 C 299.158 298.022,299.871 293.726,300.892 288.632 C 304.265 271.799,305.903 260.929,305.373 258.902 C 305.170 258.123,304.681 258.097,292.265 258.205 L 279.368 258.316 278.809 261.684 C 277.998 266.559,273.888 287.109,272.798 291.732 L 271.868 295.675 269.092 295.420 C 265.050 295.050,245.916 293.962,234.947 293.479 C 222.687 292.939,176.859 292.940,164.632 293.480 C 153.925 293.954,135.194 295.017,130.696 295.407 L 127.709 295.666 126.780 291.728 C 125.691 287.108,121.580 266.557,120.770 261.684 L 120.211 258.316 107.158 258.316 L 94.105 258.316 93.970 259.497 C 93.745 261.458,95.515 272.635,98.109 285.628 C 99.455 292.375,100.430 298.029,100.274 298.194 C 100.118 298.359,94.119 299.450,86.943 300.619 C 79.766 301.789,68.877 303.706,62.744 304.880 L 51.592 307.014 50.677 305.950 C 45.365 299.774,35.008 278.604,28.867 261.368 L 27.704 258.105 14.729 258.105 C -1.871 258.105,-0.530 257.307,2.153 265.597 C 31.259 355.531,108.253 412.536,200.421 412.393 C 289.345 412.255,367.237 356.019,395.172 271.789 C 399.268 259.439,399.448 258.728,398.548 258.382 C 396.928 257.761,371.819 257.539,371.598 258.144 M244.421 320.629 C 263.925 321.776,263.203 321.460,260.385 327.627 C 225.205 404.621,174.588 404.814,139.371 328.087 C 136.871 322.641,136.908 322.402,140.348 321.719 C 150.431 319.715,217.014 319.018,244.421 320.629 M109.124 325.789 C 109.495 326.426,111.166 330.168,112.837 334.105 C 116.933 343.757,122.815 355.291,128.189 364.211 C 132.185 370.844,133.083 372.632,132.418 372.632 C 130.215 372.632,107.195 360.288,99.579 355.023 C 89.001 347.710,69.989 331.555,70.895 330.649 C 71.253 330.291,95.641 326.351,106.316 324.926 C 107.011 324.834,107.775 324.729,108.014 324.695 C 108.254 324.660,108.754 325.153,109.124 325.789 M301.053 326.117 C 308.914 327.209,328.478 330.443,328.726 330.691 C 329.443 331.407,312.444 346.150,303.458 352.605 C 294.282 359.197,269.934 372.632,267.164 372.632 C 266.498 372.632,267.413 370.818,271.623 363.789 C 277.198 354.484,284.342 340.264,287.763 331.667 C 290.249 325.419,290.860 324.526,292.421 324.857 C 292.884 324.955,296.768 325.522,301.053 326.117 " stroke="none" fill="#000000" fill-rule="evenodd"></path></g></svg>