<?xml version="1.0" encoding="UTF-8" standalone="no"?><!-- Generator: Gravit.io --><svg xmlns="http://www.w3.org/2000/svg" xmlns:xlink="http://www.w3.org/1999/xlink" style="isolation:isolate" viewBox="0 0 200 200" width="200pt" height="200pt"><defs><clipPath id="_clipPath_dvQprOLA1rfTDGSsa5lsGY2Z9FuXOi2K"><rect width="200" height="200"/></clipPath></defs><g clip-path="url(#_clipPath_dvQprOLA1rfTDGSsa5lsGY2Z9FuXOi2K)"><g><path d=" M 5.545 60.873 L -10.818 60.873 L -10.818 122.746 L 54.636 122.746 L 54.636 107.278 L 54.636 107.278 C 27.542 107.278 5.545 86.484 5.545 60.873 L 5.545 60.873 Z " fill-rule="evenodd" fill="rgb(0,0,0)"/><path d=" M 52.455 184.561 L 52.455 200.029 L 117.909 200.029 L 117.909 138.156 L 101.545 138.156 L 101.545 138.156 C 101.545 163.768 79.549 184.561 52.455 184.561 Z " fill-rule="evenodd" fill="rgb(0,0,0)"/><path d=" M 54.636 15.468 L 54.636 0 L -10.818 0 L -10.818 61.873 L 5.545 61.873 L 5.545 61.873 C 5.545 36.261 27.542 15.468 54.636 15.468 L 54.636 15.468 Z " fill-rule="evenodd" fill="rgb(0,0,0)"/><g><ellipse vector-effect="non-scaling-stroke" cx="54.63636363636373" cy="61.872932533508404" rx="32.727272727272734" ry="30.936466266754206" fill="rgb(0,0,0)"/><rect x="54.636" y="30.936" width="76.364" height="61.873" transform="matrix(1,0,0,1,0,0)" fill="rgb(0,0,0)"/><ellipse vector-effect="non-scaling-stroke" cx="131.00000000000006" cy="61.872932533508404" rx="32.72727272727274" ry="30.936466266754206" fill="rgb(0,0,0)"/></g><g><rect x="-25" y="107.278" width="76.364" height="61.873" transform="matrix(1,0,0,1,0,0)" fill="rgb(0,0,0)"/><ellipse vector-effect="non-scaling-stroke" cx="51.36363636363645" cy="138.21409820039375" rx="32.727272727272734" ry="30.936466266754195" fill="rgb(0,0,0)"/></g><rect x="53.545" y="0" width="87.273" height="15.468" transform="matrix(1,0,0,1,0,0)" fill="rgb(0,0,0)"/><path d=" M 184.455 61.873 L 200.818 61.873 L 200.818 0 L 135.364 0 L 135.364 15.468 L 135.364 15.468 C 162.458 15.468 184.455 36.261 184.455 61.873 L 184.455 61.873 Z " fill-rule="evenodd" fill="rgb(0,0,0)"/><path d=" M 101.545 139.214 L 117.909 139.214 L 117.909 77.341 L 52.455 77.341 L 52.455 92.809 L 52.455 92.809 C 79.549 92.809 101.545 113.603 101.545 139.214 L 101.545 139.214 Z " fill-rule="evenodd" fill="rgb(0,0,0)"/><path d=" M 135.364 107.278 L 135.364 122.746 L 200.818 122.746 L 200.818 60.873 L 184.455 60.873 L 184.455 60.873 C 184.455 86.484 162.458 107.278 135.364 107.278 L 135.364 107.278 Z " fill-rule="evenodd" fill="rgb(0,0,0)"/><path d=" M 134.273 116.357 L 135.364 114.465 L 160.324 157.747 L 185.284 201.029 L 135.364 201.029 L 85.443 201.029 L 85.443 201.029 L 134.273 201.029 L 134.273 116.357 Z " fill-rule="evenodd" fill="rgb(0,0,0)"/><path d=" M 200.57 191.432 L 199.443 193.324 L 173.665 150.042 L 147.887 106.76 L 199.443 106.76 L 251 106.76 L 251 106.76 L 200.57 106.76 L 200.57 191.432 Z " fill-rule="evenodd" fill="rgb(0,0,0)"/><rect x="155.585" y="96.094" width="17.892" height="110.559" transform="matrix(0.88,-0.475,0.517,0.857,-58.602,99.754)" fill="rgb(255,255,255)"/><rect x="-4.273" y="184.619" width="205.282" height="15.41" transform="matrix(-1,0,0,-1,196.737,384.648)" fill="rgb(0,0,0)"/></g></g></svg>