<?xml version="1.0" encoding="UTF-8" standalone="no"?>
<svg
   version="1.0"
   width="1200px"
   height="1200px"
   viewBox="0 0 1200 1200"
   preserveAspectRatio="xMidYMid meet"
   id="svg6"
   sodipodi:docname="logo.svg"
   inkscape:version="1.1 (c68e22c387, 2021-05-23)"
   xmlns:inkscape="http://www.inkscape.org/namespaces/inkscape"
   xmlns:sodipodi="http://sodipodi.sourceforge.net/DTD/sodipodi-0.dtd"
   xmlns="http://www.w3.org/2000/svg"
   xmlns:svg="http://www.w3.org/2000/svg">
  <defs
     id="defs10" />
  <sodipodi:namedview
     id="namedview8"
     pagecolor="#ffffff"
     bordercolor="#666666"
     borderopacity="1.0"
     inkscape:pageshadow="2"
     inkscape:pageopacity="0.0"
     inkscape:pagecheckerboard="0"
     showgrid="false"
     inkscape:zoom="0.21666667"
     inkscape:cx="43.846154"
     inkscape:cy="403.84615"
     inkscape:window-width="1366"
     inkscape:window-height="705"
     inkscape:window-x="-8"
     inkscape:window-y="-8"
     inkscape:window-maximized="1"
     inkscape:current-layer="svg6" />
  <path
     d="m 0,1064 v -44 h 160.3 c 155.9,0 165.5,-0.2 182.7,-3.1 8.4,-1.4 25.2,-5.5 28.5,-7 1.1,-0.4 5.2,-1.9 9,-3.2 6.3,-2.2 22.7,-9.8 28,-13 6.7,-4 22.4,-14.5 24.5,-16.3 14.4,-12.3 20,-17.8 27,-26.1 6.9,-8.3 14.7,-19 18.5,-25.5 1.6,-2.6 11.6,-23 13,-26.3 4.7,-11.5 8.6,-26.9 10.5,-41.5 1.2,-8.6 1.1,-36.6 0,-46 -1.4,-10.9 -5,-26.5 -7.6,-32.7 -0.8,-1.7 -1.4,-3.6 -1.4,-4.2 0,-2.8 -11.9,-26.6 -17.8,-35.6 -15.5,-23.6 -36.8,-44.5 -59.6,-58.4 -7.5,-4.6 -24.4,-13.5 -27.3,-14.4 -1,-0.3 -4.3,-1.5 -7.3,-2.7 -11.2,-4.4 -25.6,-8.5 -35,-9.9 -3,-0.5 -9.5,-1.6 -14.5,-2.4 -4.9,-0.9 -17.5,-2.1 -28,-2.7 -10.4,-0.6 -21,-1.6 -23.5,-2.1 -2.5,-0.6 -7,-1.5 -10,-1.9 -6.8,-0.9 -15.7,-3 -31.8,-7.6 -7.3,-2.1 -15.1,-4.9 -29.7,-10.9 -12.7,-5.2 -36.1,-17 -39.6,-20.1 -0.8,-0.8 -1.9,-1.4 -2.2,-1.4 -1.3,0 -20,-13.2 -29.7,-20.8 -11.8,-9.4 -35.8,-33.1 -42.5,-41.9 -2.7,-3.7 -5.4,-7.1 -6,-7.7 -8.4,-9.1 -26.8,-40.7 -35.3,-60.6 -0.8,-1.9 -2,-4.4 -2.5,-5.5 -0.6,-1.1 -1.4,-3.3 -1.8,-5 -0.4,-1.6 -1.7,-5.7 -2.9,-9 -5.3,-14.8 -9.7,-34.8 -12.1,-55 -1.2,-10.3 -1.2,-46.6 0,-57 2.1,-17.7 6.9,-40.4 11.2,-52.5 11.3,-32.4 22.9,-54.8 41.3,-79.5 14.8,-19.9 38.8,-43.9 57.7,-57.8 9.2,-6.7 15,-10.7 19.2,-13.3 2.7,-1.6 6.1,-3.7 7.5,-4.6 22.9,-14.4 59,-28.7 89.2,-35.3 4.1,-0.9 9.5,-2.1 12,-2.7 2.5,-0.5 8.3,-1.4 13,-1.9 4.7,-0.5 11.7,-1.3 15.5,-1.8 8.9,-1.3 525.7,-1.3 537,-0.1 4.4,0.5 12.1,1.3 17,1.9 5,0.5 11,1.4 13.5,2 2.5,0.5 8.1,1.7 12.5,2.7 11.5,2.4 35,9.3 42,12.4 1.1,0.5 4.9,2.1 8.5,3.6 7.5,3 29.1,13.6 33.5,16.5 1.7,1 3.9,2.3 5,2.9 8,4.3 24.9,16.1 37.7,26.5 9.5,7.7 29.8,28 37.3,37.4 19.9,24.7 34,48.6 44.6,75.2 2.1,5.4 3.9,10.3 3.9,10.9 0,0.6 0.4,1.8 0.9,2.8 1.2,2.2 3.9,11.1 5.1,16.5 0.5,2.3 1.4,6.2 2,8.7 2.8,11.6 3.2,14 4,22 0.5,4.7 1.3,12.1 1.9,16.5 1.7,14 0.3,39.6 -3.1,57.5 -0.6,3 -1.4,7.8 -1.8,10.7 -0.4,2.8 -1.3,6.6 -1.8,8.5 -0.6,1.8 -2,6.7 -3.2,10.8 -2.5,8.3 -4.8,15.5 -6.1,18.5 -0.4,1.1 -1.8,4.5 -3,7.5 -5.3,13.3 -11.7,26.4 -16.9,34.5 -1.1,1.7 -2.3,3.7 -2.7,4.5 -1,2.2 -13,19.8 -16.6,24.5 -14.5,18.7 -36,40.1 -54.2,54.2 -4.8,3.7 -22.4,15.6 -24.5,16.6 -0.8,0.4 -2.8,1.6 -4.5,2.6 -6.5,4.2 -23.9,13.2 -33,17.1 -2.7,1.2 -6.4,2.8 -8.2,3.6 -1.7,0.8 -3.7,1.4 -4.5,1.4 -0.8,0 -1.8,0.4 -2.4,0.8 -0.8,0.8 -15.9,5.8 -28.2,9.3 -2.4,0.7 -4.5,1.6 -4.8,2 -0.2,0.4 0.5,2.3 1.6,4.1 1.1,1.8 2.4,4.2 3,5.3 0.6,1.1 1.9,3.4 3,5 1.1,1.7 2.4,3.9 3,5 0.6,1.1 1.8,3.2 2.8,4.7 0.9,1.5 11.3,18.6 23,38 11.6,19.4 23.6,39.2 26.6,44 3,4.8 6,9.8 6.8,11.2 1.3,2.6 33.8,56.4 37,61.4 1,1.5 2.2,3.6 2.8,4.7 0.6,1.1 1.9,3.4 3,5 1.1,1.7 2.4,3.9 3,5 0.6,1.1 1.9,3.4 3,5 1,1.7 2.5,4 3.2,5.2 3.5,5.9 51.5,85.7 53,88.1 1,1.5 2.1,3.4 2.5,4.2 0.4,0.8 1.9,3.3 3.4,5.5 1.4,2.2 3.7,5.9 5,8.2 2.7,4.7 32.4,53.9 35.1,58.1 1,1.5 2.2,3.6 2.8,4.7 0.6,1.1 1.9,3.4 3,5 1.1,1.7 2.4,3.9 3,5 0.6,1.1 1.8,3.2 2.8,4.7 7.7,11.9 49.2,82.2 49.2,83.4 0,1.2 -8.6,1.4 -62.7,1.2 l -62.8,-0.3 -12.2,-20 c -6.8,-11 -12.8,-21.1 -13.5,-22.5 -0.7,-1.4 -2.5,-4.3 -3.9,-6.5 -1.4,-2.2 -2.9,-4.7 -3.3,-5.5 -0.4,-0.8 -1.2,-2.4 -1.9,-3.5 -2.9,-4.7 -6.3,-10.2 -7.4,-12 -5,-8.3 -28.7,-47.4 -29.6,-49 -0.7,-1.1 -2.3,-3.8 -3.7,-6 -1.4,-2.2 -2.9,-4.7 -3.3,-5.5 -0.4,-0.8 -1.6,-2.8 -2.7,-4.5 -1.1,-1.6 -2.4,-3.9 -3,-5 -0.6,-1.1 -1.8,-3.2 -2.8,-4.7 -1.4,-2.1 -40.9,-67.6 -45.5,-75.3 -0.6,-1.1 -2.6,-4.2 -4.3,-7 -1.7,-2.7 -3.4,-5.7 -3.8,-6.5 -0.4,-0.8 -1.2,-2.4 -1.9,-3.5 -3,-4.9 -6.3,-10.2 -7.4,-12 -0.6,-1.1 -8.7,-14.5 -18,-29.8 -9.2,-15.3 -17.6,-29 -18.5,-30.5 -1,-1.5 -2.2,-3.6 -2.8,-4.7 -0.6,-1.1 -1.9,-3.3 -3,-5 -1.1,-1.6 -2.3,-3.7 -2.7,-4.5 -0.4,-0.8 -1.9,-3.3 -3.3,-5.5 -1.4,-2.2 -3,-4.9 -3.7,-6 -13.3,-22.6 -37,-61.4 -38.1,-62.7 -0.8,-1 -1.9,-1.8 -2.4,-1.8 -0.4,0 -0.9,89.9 -1,199.8 l -0.3,199.7 -48.4,0.3 c -34.7,0.1 -48.8,-0.1 -49.7,-0.9 -1.2,-0.9 -1.4,-45.5 -1.4,-274.1 0,-194.7 0.3,-273.5 1.1,-275 1.1,-2 1.8,-2 43.2,-1.8 46.3,0.2 60.6,-0.3 74.2,-2.6 44,-7.6 81.1,-26.6 110.7,-56.8 7.1,-7.2 20.8,-23.7 20.8,-25 0,-0.2 1.9,-3.3 4.3,-6.8 4.2,-6.3 12,-21.2 14.4,-27.8 6.1,-16.4 9.1,-27.8 11.3,-43 1.1,-7.2 1.1,-37.9 0,-45 -2.1,-14.4 -3.1,-18.9 -7.6,-33.5 -3.9,-12.6 -14.3,-32.8 -24.8,-48.2 -6.9,-10 -30.2,-34 -38.7,-39.8 -2.4,-1.6 -6.7,-4.6 -9.6,-6.7 -4.5,-3.3 -8.7,-5.7 -20.8,-12.2 -20.7,-11 -45.7,-18.2 -73.4,-21.1 -21.5,-2.2 -474.7,-2.2 -496.2,0 -18.1,1.9 -34.6,5.3 -43.7,9.1 -1.8,0.8 -3.9,1.4 -4.7,1.4 -0.8,0 -2.9,0.6 -4.7,1.4 -9,4 -15.7,7 -19.8,8.9 -5.1,2.4 -18.4,10.1 -21.6,12.6 -1.2,0.9 -3.2,2.3 -4.4,3.1 -10.7,7.1 -28.1,23.7 -38.6,36.7 -4.1,5 -7.4,9.4 -7.4,9.7 0,0.2 -1.9,3.2 -4.1,6.6 -4.6,7 -14.9,27.1 -14.9,29.2 0,0.8 -0.4,1.8 -0.8,2.4 -1,1 -4.2,10.8 -6.5,19.9 -3.8,15.1 -4.7,23 -4.7,43.2 0,19.5 0.6,25.5 4.1,39.8 0.6,2.2 1.5,5.8 2,8 0.5,2.2 1.3,4.9 1.8,6 0.5,1.1 1.9,4.9 3.2,8.5 3.1,8.7 12.5,26.8 18.4,35.5 17.2,25.3 38.9,45.3 64.5,59.8 8.1,4.6 24.2,12.2 28,13.2 1.4,0.3 3.4,1 4.5,1.5 4.1,1.9 14,5 15.8,5 1,0 3.9,0.6 6.5,1.4 2.6,0.8 9.2,2.2 14.7,3.1 5.5,0.9 11.8,2.1 14,2.5 2.2,0.5 11.4,1.2 20.5,1.5 15.4,0.5 28.2,2.1 39,4.7 2.5,0.6 6.5,1.4 9,1.8 2.5,0.3 6.1,1.1 8,1.7 10.2,3.2 13.8,4.2 16.7,4.8 1.8,0.4 3.5,1.1 3.8,1.6 0.4,0.5 1.4,0.9 2.4,0.9 1.7,0 5.9,1.6 14.8,5.6 1.7,0.8 3.3,1.4 3.6,1.4 0.7,0 13.4,5.7 16,7.1 1,0.5 5.3,2.8 9.5,5 4.2,2.2 9.1,4.9 10.7,6 1.7,1 3.7,2.2 4.5,2.6 3.2,1.5 21,14 30,21.1 11.8,9.4 35.3,32.8 44.9,44.7 4,5 10.2,13.5 13.9,19 6.7,9.9 7.3,10.9 10.3,16.2 3.1,5.4 14.9,29.1 14.9,29.9 0.1,0.5 0.9,2.7 2,4.9 1.1,2.2 1.9,4.7 2,5.6 0,0.8 0.4,1.9 0.9,2.5 0.4,0.5 1.8,4.3 3.1,8.4 1.2,4.1 2.7,8.6 3.2,10 0.6,1.4 1.4,4.5 1.8,7 0.9,4.7 2.4,11.5 4.1,19 4.3,18.2 4.6,60.7 0.7,81 -0.6,3 -1.4,7.8 -1.8,10.5 -0.3,2.8 -1.2,7 -1.9,9.5 -4.6,16.9 -8.2,28.2 -9.3,29.4 -0.4,0.6 -0.8,1.7 -0.8,2.5 -0.1,0.9 -0.9,3.4 -2,5.6 -1.1,2.2 -1.9,4.4 -2,4.8 0,1.1 -12.7,26.5 -15,30.2 -1.1,1.7 -2.4,3.9 -3,5 -7.2,13.5 -26,37.5 -41.5,53 -43.6,43.4 -100.7,72.8 -161,82.9 -4.9,0.8 -12.1,2.1 -16,2.8 -5.4,0.9 -46.5,1.3 -176.7,1.5 L 0,1108 Z"
     id="path2"
     style="fill:#000000" />
</svg>
