<svg id="svg" version="1.1" xmlns="http://www.w3.org/2000/svg" xmlns:xlink="http://www.w3.org/1999/xlink" width="400" height="400" viewBox="0, 0, 400,400"><g id="svgg"><path id="path0" d="M178.516 1.110 C 158.919 6.013,151.318 19.931,150.086 53.165 C 149.467 69.878,148.719 72.035,141.395 78.210 C 129.304 88.405,146.989 98.176,166.052 91.833 C 175.100 88.823,174.998 88.942,171.673 85.263 C 169.052 82.360,166.406 78.153,166.406 76.885 C 166.406 76.590,168.175 78.003,170.337 80.026 C 182.206 91.127,200.142 90.992,211.845 79.712 C 213.924 77.708,215.622 76.268,215.618 76.511 C 215.594 77.913,210.615 85.332,208.976 86.406 C 206.050 88.323,206.429 88.668,214.258 91.224 C 229.275 96.126,237.651 95.035,242.773 87.508 C 245.443 83.586,245.033 82.284,239.543 77.254 C 232.432 70.738,231.995 69.308,231.208 50.000 C 230.141 23.827,224.933 11.564,211.864 4.451 C 203.985 0.163,188.501 -1.388,178.516 1.110 M48.683 16.768 C 43.374 19.078,43.750 8.361,43.750 157.257 L 43.750 291.935 49.414 291.866 C 52.529 291.828,56.396 292.076,58.008 292.418 L 60.938 293.040 60.938 157.240 C 60.938 6.390,61.402 19.063,55.782 16.714 C 52.601 15.385,51.851 15.391,48.683 16.768 M181.641 100.864 C 170.369 103.414,168.230 104.739,132.844 131.088 C 117.577 142.457,104.718 151.899,104.270 152.072 C 103.821 152.244,95.808 148.157,86.462 142.989 C 77.116 137.822,69.308 133.594,69.110 133.594 C 68.912 133.594,68.750 141.263,68.750 150.637 L 68.750 167.680 83.008 175.547 C 90.850 179.873,98.080 183.831,99.076 184.341 C 105.744 187.755,109.648 186.051,130.265 170.722 L 146.484 158.663 146.694 175.637 L 146.904 192.611 129.422 241.423 C 109.165 297.980,110.470 293.726,112.565 296.390 L 114.176 298.438 130.525 298.438 L 146.875 298.438 146.875 338.697 C 146.875 382.826,146.744 381.502,151.654 387.095 C 160.909 397.635,177.764 395.320,184.577 382.573 C 186.317 379.318,186.330 379.041,186.556 338.867 L 186.785 298.438 191.049 298.438 L 195.313 298.438 195.313 337.751 C 195.312 382.290,195.284 382.044,201.169 387.929 C 211.371 398.131,229.216 394.188,234.042 380.666 C 234.861 378.368,235.095 369.160,235.122 338.086 L 235.156 298.438 251.441 298.438 C 269.365 298.438,270.313 298.189,270.313 293.486 C 270.313 292.335,262.389 269.289,252.704 242.274 L 235.095 193.156 235.321 186.025 L 235.547 178.894 253.728 203.404 C 273.468 230.015,273.329 229.850,277.543 231.611 C 291.762 237.552,303.840 221.816,295.052 208.799 C 287.892 198.193,224.126 113.236,221.230 110.444 C 212.174 101.714,195.607 97.704,181.641 100.864 M286.264 270.288 C 283.452 271.426,280.469 275.665,280.469 278.525 C 280.469 283.477,281.712 284.937,293.064 293.321 L 304.143 301.503 296.489 301.728 C 284.153 302.091,284.506 298.256,292.529 344.705 C 296.208 366.008,299.219 383.824,299.219 384.297 C 299.219 384.769,299.922 385.859,300.781 386.719 C 303.230 389.168,369.275 389.160,371.492 386.710 C 372.724 385.349,385.861 311.952,385.923 306.085 C 385.968 301.844,384.323 301.563,359.534 301.563 L 336.550 301.563 315.703 286.370 C 291.973 269.078,290.817 268.446,286.264 270.288 M48.047 299.810 C 40.270 300.476,30.469 307.257,30.469 311.971 C 30.469 312.127,32.842 311.796,35.742 311.234 C 38.643 310.673,45.234 310.214,50.391 310.214 C 55.547 310.214,62.139 310.673,65.039 311.234 C 67.939 311.796,70.313 312.117,70.313 311.948 C 70.313 305.685,57.976 298.960,48.047 299.810 M337.131 315.777 C 343.258 318.569,341.427 328.125,334.766 328.125 C 328.071 328.125,326.107 318.122,332.310 315.618 C 334.582 314.702,334.786 314.709,337.131 315.777 M35.936 319.431 C 19.058 323.119,14.372 329.128,14.536 346.875 C 14.807 376.313,30.442 393.929,60.708 398.899 C 75.273 401.291,113.425 398.742,115.715 395.224 C 117.405 392.628,116.100 390.349,111.328 387.568 C 97.777 379.669,89.063 364.896,89.063 349.822 C 89.062 340.183,83.650 328.694,76.891 323.986 C 69.340 318.727,49.341 316.503,35.936 319.431 " stroke="none" fill="#000000" fill-rule="evenodd"></path></g></svg>