<svg id="svg" version="1.1" xmlns="http://www.w3.org/2000/svg" xmlns:xlink="http://www.w3.org/1999/xlink" width="400" height="400" viewBox="0, 0, 400,400"><g id="svgg"><path id="path0" d="M237.975 64.979 L 237.975 88.608 256.118 88.608 C 266.097 88.608,274.262 88.895,274.262 89.245 C 274.262 89.596,261.635 102.504,246.203 117.929 L 218.143 145.975 210.819 142.170 C 147.933 109.505,71.713 140.535,49.375 207.895 C 20.098 296.179,105.173 380.806,194.093 351.851 C 263.214 329.343,294.017 244.166,255.085 183.199 L 252.170 178.635 280.515 150.289 L 308.861 121.944 308.861 140.719 L 308.861 159.494 331.977 159.494 C 352.036 159.494,355.160 159.321,355.594 158.191 C 356.898 154.793,356.118 44.002,354.780 42.664 C 353.616 41.500,346.869 41.350,295.720 41.350 L 237.975 41.350 237.975 64.979 M171.055 177.699 C 214.722 186.719,237.166 232.627,217.691 273.094 C 193.994 322.333,122.252 322.366,97.982 273.149 C 73.478 223.461,117.052 166.544,171.055 177.699 " stroke="none" fill="#000000" fill-rule="evenodd"></path></g></svg>