<svg id="svg" version="1.1" xmlns="http://www.w3.org/2000/svg" xmlns:xlink="http://www.w3.org/1999/xlink" width="400" height="298.47094801223244" viewBox="0, 0, 400,298.47094801223244"><g id="svgg"><path id="path0" d="M287.462 0.705 C 279.200 2.211,150.036 27.920,148.420 28.379 C 134.146 32.436,127.126 47.270,132.505 62.009 C 133.876 65.766,134.167 66.215,156.110 98.466 C 168.122 116.121,171.529 121.400,171.142 121.758 C 170.867 122.013,135.872 142.356,93.374 166.965 C 50.877 191.575,15.556 212.059,14.883 212.486 C 13.674 213.254,13.990 213.261,41.386 213.131 L 69.113 212.999 74.006 211.903 C 76.697 211.300,83.897 209.440,90.007 207.769 C 122.558 198.868,131.121 198.664,156.887 206.176 C 190.581 216.000,196.040 216.044,224.873 206.724 C 240.617 201.635,245.185 200.756,253.823 201.153 C 266.354 201.728,280.194 205.709,290.417 211.680 C 291.966 212.584,293.295 213.262,293.370 213.186 C 293.445 213.110,272.248 181.126,246.267 142.111 C 220.285 103.095,199.084 71.117,199.152 71.048 C 199.221 70.979,204.394 69.915,210.648 68.682 C 233.910 64.097,284.236 54.152,291.131 52.777 C 308.710 49.272,315.806 42.659,316.696 28.950 C 317.899 10.411,304.614 -2.424,287.462 0.705 M318.451 75.865 C 278.064 80.877,261.217 129.491,289.920 158.194 C 320.482 188.755,372.273 167.165,372.273 123.864 C 372.273 95.043,346.821 72.345,318.451 75.865 M116.528 223.029 C 110.366 224.328,106.505 225.808,93.374 231.902 C 76.644 239.666,71.737 240.919,61.057 240.156 C 46.593 239.122,25.459 233.496,6.777 225.706 C 3.217 224.221,0.227 223.082,0.134 223.175 C 0.041 223.268,0.094 236.381,0.252 252.316 L 0.538 281.287 4.333 282.957 C 26.035 292.512,48.514 298.063,65.507 298.063 C 75.062 298.063,80.511 296.480,98.967 288.344 C 126.957 276.004,134.493 275.846,155.556 287.158 C 183.174 301.991,188.509 301.950,221.407 286.649 C 249.062 273.786,257.543 273.883,292.151 287.455 C 325.473 300.523,332.687 300.396,355.828 286.338 C 367.126 279.475,370.690 278.310,380.428 278.296 C 388.967 278.285,393.696 279.624,397.942 283.259 L 399.728 284.787 399.451 262.174 L 399.174 239.561 397.518 236.219 C 390.490 222.030,376.205 218.554,358.002 226.603 C 355.647 227.644,350.687 229.997,346.979 231.833 C 324.559 242.931,318.736 243.005,284.608 232.627 C 243.080 219.999,240.739 219.942,214.475 230.899 C 183.982 243.620,179.086 243.595,151.104 230.578 C 133.952 222.599,126.394 220.949,116.528 223.029 " stroke="none" fill="#000000" fill-rule="evenodd"></path></g></svg>