<svg id="svg" version="1.1" xmlns="http://www.w3.org/2000/svg" xmlns:xlink="http://www.w3.org/1999/xlink" width="400" height="384.48979591836735" viewBox="0, 0, 400,384.48979591836735"><g id="svgg"><path id="path0" d="M171.990 0.415 C 139.895 2.938,104.336 31.132,91.575 64.175 C 86.641 76.951,85.101 86.092,85.126 102.449 C 85.157 122.046,87.072 130.813,95.115 148.163 L 97.858 154.082 110.868 154.333 C 143.007 154.954,167.097 164.156,190.450 184.734 C 192.719 186.732,195.800 189.451,197.299 190.774 L 200.023 193.181 200.930 192.357 C 225.777 169.760,244.551 159.783,270.393 155.443 L 276.070 154.490 278.588 149.184 C 307.797 87.631,276.889 19.183,212.416 2.639 C 204.239 0.541,184.327 -0.555,171.990 0.415 M178.571 24.034 C 190.499 26.629,201.656 34.834,206.615 44.656 C 211.707 54.745,211.404 71.514,205.926 82.716 C 187.069 121.279,131.421 125.939,117.548 90.116 C 104.464 56.333,141.699 16.012,178.571 24.034 M149.010 34.118 C 138.199 37.025,129.309 48.365,130.617 57.582 C 131.950 66.985,131.807 66.862,138.134 64.043 C 144.355 61.271,144.437 61.171,143.493 57.532 C 141.277 48.988,151.392 42.283,157.221 48.433 C 161.175 52.605,160.756 58.310,156.164 62.817 L 154.345 64.601 156.662 69.026 C 159.342 74.144,158.953 73.916,161.533 71.877 C 167.518 67.146,172.260 67.309,177.373 72.421 C 186.572 81.620,179.363 95.668,167.959 90.764 C 161.370 87.931,161.740 87.844,155.582 93.663 L 152.569 96.510 154.142 97.855 C 165.283 107.379,178.624 106.061,189.451 94.367 C 193.667 89.813,194.082 88.473,194.082 79.388 C 194.082 70.617,193.907 69.921,190.598 65.539 C 186.900 60.641,183.773 59.150,176.436 58.785 C 170.030 58.468,170.330 58.666,171.232 55.336 C 174.848 41.974,162.752 30.424,149.010 34.118 M281.429 163.270 C 254.483 164.769,229.823 176.132,210.276 196.056 C 206.341 200.067,206.095 200.413,206.556 201.298 C 206.827 201.819,208.983 205.452,211.347 209.371 C 219.856 223.476,225.419 237.234,228.269 251.224 C 229.667 258.085,229.667 289.262,228.269 296.122 C 225.419 310.113,219.856 323.871,211.347 337.976 C 208.983 341.895,206.827 345.528,206.556 346.049 C 205.958 347.197,211.290 352.905,218.980 359.349 C 251.088 386.258,298.458 392.270,336.299 374.240 C 367.436 359.403,389.609 332.311,397.892 298.980 C 399.673 291.814,399.796 290.175,399.796 273.673 C 399.796 257.171,399.673 255.533,397.892 248.367 C 384.523 194.571,337.423 160.157,281.429 163.270 M94.177 163.709 C 85.064 164.673,70.575 169.483,59.349 175.272 C 27.728 191.579,3.477 226.005,0.375 258.989 C -0.408 267.320,0.105 289.759,1.193 294.784 C 14.484 356.141,72.778 394.807,133.265 382.387 C 207.683 367.107,244.899 281.294,205.359 216.151 C 182.325 178.201,141.085 158.749,94.177 163.709 M122.575 190.168 C 154.986 197.625,170.489 229.032,153.997 253.819 C 138.921 276.476,104.087 282.493,80.000 266.601 C 44.247 243.012,59.009 195.982,104.286 189.231 C 107.416 188.764,119.069 189.361,122.575 190.168 M300.816 190.195 C 317.543 193.623,329.177 202.336,336.289 216.759 C 340.897 226.105,340.910 238.747,336.321 248.367 C 320.463 281.612,266.200 284.841,245.931 253.746 C 228.070 226.345,247.253 193.908,284.082 189.235 C 287.414 188.812,296.656 189.342,300.816 190.195 M284.490 197.112 C 275.361 201.403,261.633 208.590,261.633 209.079 C 261.633 209.598,270.342 239.284,270.971 240.911 C 272.109 243.852,279.685 240.468,283.036 235.523 C 289.759 225.602,300.987 229.041,304.318 242.041 C 306.841 251.889,297.113 257.939,289.229 251.425 C 286.756 249.381,287.190 249.316,282.522 252.440 C 276.765 256.293,276.926 256.138,277.457 257.304 C 279.900 262.666,290.695 266.577,297.959 264.733 C 309.929 261.695,316.340 253.943,316.320 242.531 C 316.286 222.380,297.029 211.546,281.791 223.104 C 280.195 224.315,278.779 225.306,278.645 225.306 C 277.958 225.306,275.521 214.631,276.156 214.399 C 278.992 213.362,296.143 204.123,296.248 203.575 C 296.512 202.206,291.926 194.261,290.899 194.308 C 290.629 194.321,287.745 195.582,284.490 197.112 M102.449 195.620 C 92.036 198.819,86.051 207.467,86.003 219.383 C 85.927 238.595,103.887 249.884,118.310 239.689 L 120.906 237.854 120.624 239.641 C 119.123 249.149,117.318 254.189,114.573 256.539 C 110.259 260.232,104.296 258.574,101.246 252.834 C 100.034 250.554,100.776 250.703,93.265 251.227 C 86.933 251.669,86.501 252.582,89.591 259.006 C 97.205 274.834,121.471 273.295,130.331 256.422 C 135.314 246.932,136.245 222.355,132.045 211.195 C 127.423 198.917,114.263 191.991,102.449 195.620 M111.814 207.034 C 118.915 209.197,121.750 224.714,116.073 230.346 C 109.118 237.246,100.311 232.231,99.694 221.020 C 99.103 210.298,103.995 204.653,111.814 207.034 " stroke="none" fill="#000000" fill-rule="evenodd"></path></g></svg>