<svg id="svg" version="1.1" xmlns="http://www.w3.org/2000/svg" xmlns:xlink="http://www.w3.org/1999/xlink" width="400" height="400" viewBox="0, 0, 400,400"><g id="svgg"><path id="path0" d="M112.417 74.090 C 109.375 75.013,105.762 77.911,103.834 80.976 L 101.917 84.022 101.752 103.832 C 101.662 114.728,101.811 166.629,102.083 219.169 L 102.578 314.696 104.081 318.046 C 105.903 322.105,109.275 325.285,113.480 326.906 C 117.549 328.476,294.450 328.827,299.579 327.276 C 303.365 326.131,307.835 321.868,309.755 317.572 L 311.325 314.058 311.733 201.533 C 311.957 139.645,311.948 87.667,311.713 86.026 C 311.110 81.826,307.822 77.478,303.570 75.257 L 300.174 73.482 207.116 73.537 C 155.934 73.568,113.319 73.816,112.417 74.090 M297.580 85.016 C 300.698 86.103,300.958 87.531,300.958 103.520 C 300.958 117.759,300.920 118.197,299.560 119.464 C 297.637 121.255,117.066 121.556,114.519 119.772 C 113.117 118.790,113.099 118.582,113.099 102.938 C 113.099 85.853,113.138 85.651,116.613 84.805 C 119.360 84.136,295.645 84.341,297.580 85.016 M234.824 90.410 C 234.473 90.527,233.400 90.796,232.440 91.008 C 225.964 92.435,221.795 102.696,225.112 109.041 C 232.440 123.055,253.473 114.618,249.206 99.377 C 247.628 93.740,239.685 88.788,234.824 90.410 M272.089 91.105 C 264.067 93.574,260.877 103.881,266.023 110.705 C 275.295 123.000,293.675 112.970,288.458 98.462 C 286.101 91.908,279.346 88.872,272.089 91.105 M298.356 133.313 L 299.681 134.997 299.681 223.698 C 299.681 318.941,299.823 315.035,296.302 316.262 C 294.140 317.016,120.335 317.122,117.572 316.372 C 113.500 315.266,113.716 320.743,113.895 222.910 C 114.053 136.811,114.092 134.282,115.275 132.974 L 116.492 131.629 206.762 131.629 L 297.032 131.629 298.356 133.313 M197.125 148.019 C 117.607 160.640,106.263 268.992,181.650 295.839 C 249.661 320.059,309.898 243.175,270.667 182.219 C 255.447 158.572,223.688 143.802,197.125 148.019 M159.530 209.519 C 164.969 212.149,168.897 214.499,180.831 222.259 C 184.872 224.887,189.617 227.956,191.374 229.079 C 193.131 230.202,197.157 232.805,200.319 234.865 C 226.913 252.183,243.818 250.343,259.133 228.462 C 261.357 225.284,263.950 221.583,264.893 220.237 C 267.328 216.766,267.859 217.865,267.820 226.291 C 267.590 276.165,214.092 304.369,171.946 276.835 C 154.968 265.743,144.906 244.795,145.934 222.684 C 146.674 206.755,149.053 204.452,159.530 209.519 " stroke="none" fill="#000000" fill-rule="evenodd"></path></g></svg>